<svg xmlns="http://www.w3.org/2000/svg" width="35.014" height="43" viewBox="0 0 35.014 43"><defs><style>.a{fill:#fff;}</style></defs><g transform="translate(-56.829)"><path class="a" d="M74.662,3.071h-.946a.915.915,0,0,1-.915-.915V2.125A2.125,2.125,0,0,0,70.675,0h-.049A2.125,2.125,0,0,0,68.5,2.125v.031a.915.915,0,0,1-.915.915h-.946A1.824,1.824,0,0,0,64.815,4.9v.037a1.824,1.824,0,0,0,1.824,1.824h8.023a1.824,1.824,0,0,0,1.824-1.824V4.9A1.825,1.825,0,0,0,74.662,3.071Zm-4.011,0a.921.921,0,1,1,.921-.921A.921.921,0,0,1,70.65,3.071Zm4.1,35.629H59.286a2.457,2.457,0,0,1-2.457-2.457V6.757A2.454,2.454,0,0,1,58.672,4.3H63.65a3.17,3.17,0,0,0-.064.633,3.056,3.056,0,0,0,3.053,3.053h8.022A3.08,3.08,0,0,0,77.655,4.3H81.4c1.971,0,3.071,1.1,3.071,2.457v18.46c-.2-.013-.407-.031-.614-.031a9.78,9.78,0,0,0-2.457.323V11.057H59.9V35.629H74.06A9.756,9.756,0,0,0,74.753,38.7Zm9.1-11.671a7.986,7.986,0,1,0,7.986,7.986A7.986,7.986,0,0,0,83.858,27.029Zm5.218,6.345L84.161,38.9a1.229,1.229,0,0,1-1.686.143L79.4,36.588a1.229,1.229,0,0,1,1.535-1.918L83.1,36.4l4.14-4.657a1.229,1.229,0,0,1,1.836,1.633ZM78.329,21.5H68.5a.614.614,0,0,1-.614-.614v-.614a.614.614,0,0,1,.614-.614h9.829a.614.614,0,0,1,.614.614v.614A.615.615,0,0,1,78.329,21.5Zm0-5.529H68.5a.614.614,0,0,1-.614-.614v-.614a.614.614,0,0,1,.614-.614h9.829a.614.614,0,0,1,.614.614v.614A.614.614,0,0,1,78.329,15.971ZM75.258,26.414H68.5a.614.614,0,0,1-.614-.614v-.614a.614.614,0,0,1,.614-.614h6.757a.614.614,0,0,1,.614.614V25.8A.614.614,0,0,1,75.258,26.414Zm-1.229,5.529H68.5a.614.614,0,0,1-.614-.614v-.614A.614.614,0,0,1,68.5,30.1h5.529a.614.614,0,0,1,.614.614v.614A.614.614,0,0,1,74.029,31.943ZM66.71,13.7l-2.262,2.545a.566.566,0,0,1-.776.066l-1.414-1.131a.566.566,0,0,1,.707-.883l.995.8,1.906-2.144a.566.566,0,0,1,.845.752Zm0,5.465L64.448,21.71a.566.566,0,0,1-.776.066l-1.414-1.131a.566.566,0,0,1,.707-.883l.995.8,1.906-2.144a.566.566,0,0,1,.845.752Zm0,5.227-2.262,2.545a.566.566,0,0,1-.776.066l-1.414-1.131a.566.566,0,0,1,.707-.883l.995.8,1.906-2.144a.566.566,0,0,1,.845.752Zm0,5.264L64.448,32.2a.566.566,0,0,1-.776.066l-1.414-1.131a.566.566,0,0,1,.707-.883l.995.8L65.865,28.9a.566.566,0,0,1,.845.752Z"/></g></svg>